<svg width="35" height="35" viewBox="0 0 35 35" fill="none" xmlns="http://www.w3.org/2000/svg">
<path d="M5.6145 0.5H29.3854C30.2868 0.5 31.0729 1.23486 31.0728 2.18747V28.3135L21.6525 34.5H5.6145C4.65108 34.5 3.927 33.7759 3.927 32.8125V2.1875C3.927 1.22408 4.65108 0.5 5.6145 0.5Z" fill="white" stroke="black"/>
<path d="M31.573 28.5833L21.8021 35L26.6876 26.6875C27.7084 28.5833 29.5313 29.6042 31.573 28.5833Z" fill="#333333"/>
<path d="M28.5833 11.0104H6.34369V12.4687H28.5833V11.0104Z" fill="#333333"/>
<path d="M28.5833 15.6771H6.34369V17.1354H28.5833V15.6771Z" fill="#333333"/>
<path d="M28.5833 20.2708H6.34369V21.7291H28.5833V20.2708Z" fill="#333333"/>
<path d="M28.5833 24.9375H6.34369V26.3958H28.5833V24.9375Z" fill="#333333"/>
<path d="M8.38544 7.65625V2.98956H9.47919V6.70831H11.4479V7.65625H8.38544Z" fill="#333333"/>
<path d="M15.9687 7C15.5312 7.4375 14.9479 7.65625 14.2187 7.65625C13.5624 7.65625 12.9791 7.4375 12.4687 7C12.0312 6.5625 11.7395 5.97919 11.7395 5.32294C11.7395 4.66669 11.9583 4.08338 12.4687 3.64588C12.9791 3.13544 13.5624 2.91669 14.2187 2.91669C14.8749 2.91669 15.4583 3.13544 15.9687 3.57294C16.4791 4.01044 16.6979 4.59375 16.6979 5.25C16.6979 5.90625 16.4062 6.5625 15.9687 7ZM15.6041 5.32294C15.6041 4.88544 15.4583 4.59375 15.2396 4.30213C14.9479 4.01044 14.6563 3.86463 14.2916 3.86463C13.9271 3.86463 13.5624 4.01044 13.3437 4.30213C13.052 4.59382 12.9791 4.95838 12.9791 5.32294C12.9791 5.76044 13.1249 6.05213 13.3437 6.34375C13.6354 6.63544 13.927 6.78125 14.2916 6.78125C14.6562 6.78125 15.0208 6.63544 15.2396 6.34375C15.4583 6.05206 15.6041 5.6875 15.6041 5.32294Z" fill="#333333"/>
<path d="M20.7082 7.65625L20.2707 6.63544H18.302L17.8645 7.65625H16.7708L18.7395 3.0625H19.7603L21.729 7.65625H20.7082ZM19.2499 4.375L18.6666 5.6875H19.8333L19.2499 4.375Z" fill="#333333"/>
<path d="M25.5208 2.98956H26.5416V7.58331H25.5208L23.3333 4.66662V7.58331H22.3124V2.98956H23.2604L25.5208 5.97912V2.98956H25.5208Z" fill="#333333"/>
<path d="M14.5834 32.2292C14.5834 32.2292 14.5105 32.2292 14.5834 32.2292C14.0001 32.2292 13.5626 32.0834 13.1251 31.7917C12.7605 31.573 12.5417 31.3542 12.4688 31.0625C12.323 30.698 12.3959 30.2605 12.6876 29.8958C12.1771 30.0416 11.6667 30.2604 11.1563 30.5521C11.0834 30.625 11.0105 30.625 11.0105 30.6979C10.9376 30.7708 10.8647 30.8437 10.7917 30.9166C10.5001 31.1354 10.2084 31.2083 9.98969 31.0624C9.698 30.9166 9.47925 30.6249 9.40637 30.4062C9.26056 30.1874 9.18762 30.1145 9.18762 30.1145C9.11469 30.1145 9.04181 30.2603 8.96888 30.3333C8.82306 30.4791 8.75012 30.6249 8.53137 30.7708C8.23969 30.9895 7.87512 31.0624 7.58344 30.9166C7.29175 30.7708 7.14594 30.4791 7.14594 30.1145C7.14594 29.7499 7.14594 29.3853 7.21887 29.0208C7.21887 28.8749 7.43762 28.7291 7.58344 28.7291C7.72925 28.7291 7.87512 28.9478 7.87512 29.0936C7.80219 29.3853 7.80219 29.7499 7.80219 30.0416C7.80219 30.1874 7.87512 30.2603 7.87512 30.2603C7.87512 30.2603 8.02094 30.2603 8.16681 30.1874C8.31269 30.1144 8.38556 30.0416 8.4585 29.9686C8.60431 29.7499 8.82306 29.5311 9.18769 29.5311C9.40644 29.5311 9.69813 29.6041 9.98975 30.1144C10.0627 30.2602 10.1356 30.4061 10.2085 30.479C10.2814 30.479 10.3543 30.479 10.4273 30.4061C10.5002 30.3331 10.5731 30.3331 10.646 30.2602C10.7189 30.1873 10.7918 30.1144 10.8648 30.0415C11.9585 29.3123 13.0523 29.0207 14.0002 29.1665H14.0731C14.9481 28.9477 15.8231 28.8748 16.7711 28.9477C17.2086 29.0207 17.7919 29.0936 18.1565 29.4582C18.3023 29.604 18.3023 29.7499 18.2295 29.8957C18.0836 30.0415 17.9378 30.0415 17.792 29.9686C17.5003 29.7499 17.0628 29.6769 16.6982 29.6041C16.1878 29.5311 15.6045 29.5311 15.094 29.6041C15.6045 29.9686 15.8961 30.6249 15.8961 31.3541V31.427C15.6771 32.0105 15.0938 32.2292 14.5834 32.2292ZM13.9271 29.8958C13.7084 29.9688 13.4896 30.0416 13.2709 30.2604C13.0521 30.4791 12.9792 30.6979 13.0521 30.9166C13.1251 31.0624 13.1979 31.2083 13.4167 31.3541C13.7812 31.5729 14.1459 31.6458 14.5104 31.7187C14.7292 31.7187 15.0209 31.6458 15.0937 31.4999C15.0208 30.8437 14.802 30.4062 14.2917 30.1874C14.2188 29.9688 14.073 29.8958 13.9271 29.8958Z" fill="#333333"/>
</svg>
