<svg width="67" height="66" viewBox="0 0 67 66" fill="none" xmlns="http://www.w3.org/2000/svg">
<path d="M57.3474 28.1714H52.2373V30.3612H55.6441V32.551H48.8305V34.7408H55.6441V36.9306H48.8305V39.1204H55.6441V41.3102H48.8305V43.5H55.6441V45.6898H48.8305V47.8796H55.6441V50.0694H48.8305V52.2592H55.6441V54.449H48.8305V56.6388H55.6441V58.8286H48.8305V61.0184H55.6441V63.2082H38.6102V40.2153H35.2034V63.2082H18.1695V51.1643H14.7627V64.3031C14.7627 64.5935 14.9422 64.872 15.2616 65.0773C15.5811 65.2826 16.0143 65.398 16.4661 65.398H57.3474C57.7992 65.398 58.2325 65.2826 58.5519 65.0773C58.8714 64.872 59.0508 64.5935 59.0508 64.3031V29.2663C59.0508 28.976 58.8714 28.6975 58.5519 28.4921C58.2325 28.2868 57.7992 28.1715 57.3474 28.1714Z" fill="#A1CBFD"/>
<path d="M32.3647 46.2817H21.0088V47.7909H32.3647V46.2817Z" fill="#A1CBFD"/>
<path d="M32.3647 50.3062H21.0088V52.3184H32.3647V50.3062Z" fill="#A1CBFD"/>
<path d="M32.3647 54.3306H21.0088V56.846H32.3647V54.3306Z" fill="#A1CBFD"/>
<path d="M32.3647 58.8582H21.0088V61.3735H32.3647V58.8582Z" fill="#A1CBFD"/>
<path d="M44.8561 37.2265H42.585V39.2388H44.8561V37.2265Z" fill="#A1CBFD"/>
<path d="M44.8561 41.2511H42.585V43.7664H44.8561V41.2511Z" fill="#A1CBFD"/>
<path d="M44.8561 46.2817H42.585V47.7909H44.8561V46.2817Z" fill="#A1CBFD"/>
<path d="M44.8561 50.3062H42.585V52.3184H44.8561V50.3062Z" fill="#A1CBFD"/>
<path d="M44.8561 54.3306H42.585V56.846H44.8561V54.3306Z" fill="#A1CBFD"/>
<path d="M44.8561 58.8582H42.585V61.3735H44.8561V58.8582Z" fill="#A1CBFD"/>
<path d="M64.5958 13.395L52.1988 21.3417V20.7034C52.1988 20.4145 52.0197 20.1373 51.7009 19.9329C51.3821 19.7286 50.9497 19.6138 50.4989 19.6138H45.3992V11.9862C45.3992 11.8431 45.3553 11.7014 45.2698 11.5692C45.1844 11.437 45.0591 11.3168 44.9012 11.2157C43.9783 10.6273 43.2467 9.92744 42.7486 9.15659C42.2505 8.38575 41.9959 7.55923 41.9995 6.72488V6.53793C41.9994 6.24894 41.8204 5.97178 41.5016 5.76743C41.1828 5.56308 40.7504 5.44828 40.2996 5.44828H38.5997V0H35.1999V5.44828H33.5C33.0492 5.44828 32.6168 5.56308 32.298 5.76743C31.9792 5.97178 31.8001 6.24894 31.8001 6.53793V6.72488C31.8037 7.55923 31.5491 8.38575 31.051 9.15659C30.5529 9.92744 29.8212 10.6273 28.8983 11.2157C28.7405 11.3168 28.6152 11.437 28.5298 11.5692C28.4443 11.7014 28.4003 11.8431 28.4003 11.9862V19.6138H23.3007C22.8498 19.6138 22.4174 19.7286 22.0987 19.9329C21.7799 20.1373 21.6008 20.4145 21.6008 20.7034V28.331H16.5011C16.0503 28.331 15.6179 28.4458 15.2991 28.6502C14.9803 28.8545 14.8012 29.1317 14.8012 29.4207V45.3141L0 54.8019L2.40417 56.3429L67 14.936L64.5958 13.395ZM48.799 23.521L48.0948 23.9724H41.9995V26.1517H44.6951L41.2953 28.331H38.5997V21.7931H48.799V23.521ZM38.6727 7.62759C38.8591 8.77692 39.4114 9.88952 40.2954 10.8966H33.5042C34.3882 9.88952 34.9405 8.77692 35.1269 7.62759H38.6727ZM31.8001 13.0759H41.9995V19.6138H38.5997V15.2552H35.1999V19.6138H31.8001V13.0759ZM25.0005 26.1517H31.8001V23.9724H25.0005V21.7931H35.1999V28.331H25.0005V26.1517ZM18.201 30.5103H35.1999V32.2383L31.8001 34.4176V32.6897H21.6008V34.869H31.0959L27.6961 37.0483H21.6008V39.2276H24.2964L18.201 43.1348V30.5103Z" fill="#A1CBFD"/>
</svg>
