<svg width="67" height="65" viewBox="0 0 67 65" fill="none" xmlns="http://www.w3.org/2000/svg">
<path d="M67 20.8164C67 20.4564 66.8094 20.1216 66.4945 19.9297L34.0755 0.161256C33.7233 -0.053752 33.2759 -0.053752 32.9245 0.161256L0.505478 19.9297C0.190578 20.1216 0 20.4564 0 20.8164V63.8887V63.8895C0 64.0244 0.028289 64.1521 0.0766779 64.2704C0.0789112 64.2762 0.0796557 64.282 0.081889 64.287C0.191322 64.5446 0.404233 64.7502 0.67 64.8563C0.675211 64.8584 0.681167 64.8592 0.686378 64.8613C0.808467 64.9082 0.940978 64.9356 1.08093 64.9356H65.9198C66.059 64.9356 66.1915 64.9082 66.3136 64.8613C66.3188 64.8592 66.3248 64.8584 66.3307 64.8563C66.5965 64.7502 66.8087 64.5446 66.9189 64.287C66.9211 64.2812 66.9218 64.2755 66.9241 64.2697C66.9717 64.1514 67 64.0237 67 63.8887V20.8164ZM2.16112 28.3922L24.015 40.1715L2.16112 61.3592V28.3922ZM50.4302 33.7617L41.3963 38.6311L34.2645 31.7162C33.8596 31.3237 33.1419 31.3237 32.7362 31.7162L25.6044 38.6311L16.5706 33.7617V23.0279H50.4309V33.7617H50.4302ZM26.5573 40.67C26.5581 40.6693 26.5581 40.6693 26.5588 40.6686L33.5 33.9391L40.4405 40.6679C40.4419 40.6693 40.4434 40.6708 40.4449 40.6722L63.3113 62.8418H3.68947L26.5573 40.67ZM42.985 40.1722L64.8389 28.3922V61.3592L42.985 40.1722ZM33.5 2.28536L64.8389 21.3951V25.9954L52.5913 32.5972V21.981C52.5913 21.4023 52.1074 20.9333 51.5103 20.9333H15.4889C14.8919 20.9333 14.408 21.4023 14.408 21.981V32.5972L2.16038 25.9954V21.3951L33.5 2.28536Z" fill="#11EE42"/>
</svg>
