<svg width="67" height="65" viewBox="0 0 67 65" fill="none" xmlns="http://www.w3.org/2000/svg">
<path fill-rule="evenodd" clip-rule="evenodd" d="M0 62.9892V22.8107C0 22.3296 0.298781 21.9116 0.74484 21.7169C0.750272 21.7037 0.762948 21.6954 0.776227 21.6871L6.79048 17.8903V1.24421C6.79048 0.557404 7.39891 -1.52588e-05 8.14858 -1.52588e-05H58.8508C59.5999 -1.52588e-05 60.2089 0.557404 60.2089 1.24421V17.8903L66.2238 21.6871C66.2365 21.6954 66.2491 21.7042 66.2552 21.7175C66.7006 21.9121 67 22.3296 67 22.8107V62.9892C67 63.6754 66.391 64.2334 65.6419 64.2334H1.3581C0.608427 64.2334 0 63.6754 0 62.9892ZM64.2838 61.745V26.341L34.4009 45.2067C34.4009 45.2067 33.813 45.632 33.5009 45.6215C33.0512 45.6215 32.82 45.3494 32.2653 44.9994L2.71619 26.3416V61.745H64.2838ZM33.4997 42.7614L57.4927 27.5609V2.48844H9.50667V27.5609L33.4997 42.7614ZM22.0223 30.4331C15.6863 24.6284 15.6863 15.2077 22.0223 9.403C28.3582 3.59828 38.6411 3.59828 44.9771 9.403C51.3131 15.2077 51.3131 24.6284 44.9771 30.4331C38.6411 36.2378 28.3582 36.2378 22.0223 30.4331ZM43.6969 29.2602C49.3254 24.1036 49.3254 15.7325 43.6969 10.5759C38.0683 5.41927 28.9311 5.41927 23.3025 10.5759C17.674 15.7325 17.674 24.1036 23.3025 29.2602C28.9311 34.4168 38.0683 34.4168 43.6969 29.2602ZM6.79048 25.84V20.9643L2.94254 23.4019L6.79048 25.84ZM60.2089 25.84L64.0569 23.4019L60.2089 20.9643V25.84ZM32.5883 25.3213L32.3088 25.3036L32.0408 25.3207C31.6955 25.282 31.3666 25.1228 31.136 24.8524L27.3732 20.4489C26.9108 19.9087 27.0152 19.1256 27.6056 18.7026C28.1953 18.279 29.05 18.3747 29.5117 18.9155L32.3148 22.1964L39.864 13.3657C40.3264 12.8249 41.1805 12.7298 41.7708 13.1534C42.3611 13.577 42.4649 14.3594 42.0026 14.9002L33.4937 24.8535C33.2625 25.1239 32.9329 25.2831 32.5883 25.3213Z" fill="#1B4E63"/>
</svg>
